<?xml version="1.0" encoding="utf-8"?>
<!-- Generator: Adobe Illustrator 23.0.1, SVG Export Plug-In . SVG Version: 6.00 Build 0)  -->
<svg version="1.1" id="Layer_1" xmlns="http://www.w3.org/2000/svg" xmlns:xlink="http://www.w3.org/1999/xlink" x="0px" y="0px"
	 viewBox="0 0 40 40" style="enable-background:new 0 0 40 40;" xml:space="preserve">
<style type="text/css">
	.st0{fill:#FEEB50;}
</style>
<rect class="st0" width="40" height="40"/>
<g>
	<path d="M9.2,7.7H19l-1.7,7.9H7.5L9.2,7.7z"/>
	<path d="M27.6,34.1c0.2-1,0.2-2.1,0.3-3.2l0.5-12.2c0.1-2.6-0.5-3-1.9-3h-2.3c-3.3,0-3.9-3.3-2.5-8c0.6-1.9,1.5-2,2.4-1.9
		c0.3,1.1,0.4,1.3,0.8,1.9h2.6c2.1,0,2.9,0.9,3,3.3l0.7,17C31.4,32.7,30.5,34.2,27.6,34.1z"/>
</g>
</svg>
